<svg xmlns="http://www.w3.org/2000/svg" height="24" width="24" viewBox="0 0 24 24" fill="black">
  <path d="M19.43 12.98c.04-.32.07-.66.07-1s-.03-.68-.07-1l2.11-1.65c.19-.15.24-.42.12-.64l-2-3.46a.5.5 0 0 0-.6-.22l-2.49 1a6.967 6.967 0 0 0-1.7-.99L14.5 2.5a.5.5 0 0 0-.5-.5h-4a.5.5 0 0 0-.5.5l-.38 2.52a6.967 6.967 0 0 0-1.7.99l-2.49-1a.5.5 0 0 0-.6.22l-2 3.46c-.12.22-.07.49.12.64l2.11 1.65c-.04.32-.07.66-.07 1s.03.68.07 1l-2.11 1.65a.5.5 0 0 0-.12.64l2 3.46a.5.5 0 0 0 .6.22l2.49-1c.52.42 1.09.76 1.7.99l.38 2.52a.5.5 0 0 0 .5.5h4c.25 0 .46-.18.5-.43l.38-2.52c.61-.23 1.18-.57 1.7-.99l2.49 1c.23.09.48-.01.6-.22l2-3.46a.5.5 0 0 0-.12-.64l-2.11-1.65zM12 15.5a3.5 3.5 0 1 1 0-7 3.5 3.5 0 0 1 0 7z"/>
</svg>